<?xml version="1.0" encoding="UTF-8" standalone="no"?>
<!DOCTYPE svg PUBLIC "-//W3C//DTD SVG 1.1//EN" "http://www.w3.org/Graphics/SVG/1.1/DTD/svg11.dtd">
<svg width="100%" height="100%" viewBox="0 0 727 727" version="1.1" xmlns="http://www.w3.org/2000/svg" xmlns:xlink="http://www.w3.org/1999/xlink" xml:space="preserve" xmlns:serif="http://www.serif.com/" style="fill-rule:evenodd;clip-rule:evenodd;stroke-linecap:round;stroke-linejoin:round;">
    <g transform="matrix(1,0,0,1,-642.271,-467.206)">
        <g transform="matrix(6.12323e-17,1,-1,6.12323e-17,1836.48,-175.065)">
            <path d="M1369.27,627.146L1369.27,1034.27C1369.27,1122.54 1297.6,1194.21 1209.33,1194.21L802.211,1194.21C713.938,1194.21 642.271,1122.54 642.271,1034.27L642.271,627.146C642.271,538.873 713.938,467.206 802.211,467.206L1209.33,467.206C1297.6,467.206 1369.27,538.873 1369.27,627.146Z" style="fill:url(#_Linear1);"/>
        </g>
        <g transform="matrix(6.8758,1.59993,-1.60962,6.91745,613.418,1005.63)">
            <path d="M48.828,-77.246C40.625,-77.246 33.057,-74.902 26.66,-70.947C22.607,-68.408 22.461,-63.867 24.512,-60.84C26.416,-58.106 30.225,-56.592 34.717,-59.228C38.818,-61.67 43.652,-63.086 48.828,-63.086C61.231,-63.086 71.729,-54.981 75.342,-43.799L71.826,-43.799C68.506,-43.799 67.725,-40.381 69.482,-38.135L79.932,-24.902C81.104,-23.438 83.35,-23.438 84.473,-24.902L94.971,-38.135C96.777,-40.381 95.947,-43.799 92.578,-43.799L89.941,-43.799C86.035,-62.891 69.092,-77.246 48.828,-77.246ZM48.828,6.738C57.031,6.738 64.6,4.395 70.996,0.439C75.049,-2.1 75.195,-6.641 73.144,-9.668C71.24,-12.402 67.432,-13.916 62.94,-11.279C58.838,-8.838 54.004,-7.422 48.828,-7.422C36.426,-7.422 25.928,-15.527 22.315,-26.709L25.83,-26.709C29.15,-26.709 29.932,-30.127 28.174,-32.373L17.725,-45.606C16.553,-47.07 14.307,-47.07 13.184,-45.606L2.686,-32.373C0.879,-30.127 1.709,-26.709 5.078,-26.709L7.715,-26.709C11.621,-7.617 28.565,6.738 48.828,6.738Z" style="fill:white;fill-opacity:0.22;fill-rule:nonzero;"/>
        </g>
        <g id="Watch-Hand-White" transform="matrix(0.88194,0,0,0.88194,554.359,388.113)">
            <g id="g2">
                <path id="Path" d="M572.292,472.058C594.487,505.367 585.478,550.362 552.169,572.557C518.86,594.752 473.866,585.742 451.671,552.434C429.476,519.125 438.485,474.13 471.794,451.935C505.102,429.74 550.097,438.75 572.292,472.058Z" style="fill:white;stroke:white;stroke-width:1px;"/>
            </g>
            <g id="g3">
                <path id="path1" d="M627.472,436.289L846,283.999" style="fill:none;fill-rule:nonzero;stroke:white;stroke-width:68px;"/>
            </g>
        </g>
        <g id="Ticks" transform="matrix(0.88194,0,0,0.88194,554.359,388.113)">
            <path id="Line" d="M512,117L512,178" style="fill:none;fill-rule:nonzero;stroke:white;stroke-width:14px;"/>
            <path id="Line-copy-3" d="M512,887L512,826" style="fill:none;fill-rule:nonzero;stroke:white;stroke-width:14px;"/>
            <path id="Line-copy" d="M897,512L836,512" style="fill:none;fill-rule:nonzero;stroke:white;stroke-width:14px;"/>
            <path id="Line-copy-2" d="M188,512L127,512" style="fill:none;fill-rule:nonzero;stroke:white;stroke-width:14px;"/>
        </g>
        <g id="Black-S">
        </g>
    </g>
    <defs>
        <linearGradient id="_Linear1" x1="0" y1="0" x2="1" y2="0" gradientUnits="userSpaceOnUse" gradientTransform="matrix(727,0,0,727,642.271,830.706)"><stop offset="0" style="stop-color:rgb(177,121,241);stop-opacity:1"/><stop offset="1" style="stop-color:rgb(133,76,199);stop-opacity:1"/></linearGradient>
    </defs>
</svg>
